<svg width="340" height="256" viewBox="0 0 340 256" fill="none" xmlns="http://www.w3.org/2000/svg">
<path d="M333.781 0.779733C337.363 1.01049 340.08 4.10169 339.85 7.68411C339.619 11.2665 336.528 13.9836 332.945 13.7528L333.781 0.779733ZM120.539 47.6758L117.268 42.0584L120.539 47.6758ZM56.8142 252.709C54.525 255.475 50.4275 255.861 47.6623 253.571L2.60041 216.266C-0.164813 213.977 -0.550678 209.879 1.73855 207.114C4.02779 204.349 8.12523 203.963 10.8905 206.252L50.9455 239.413L84.1056 199.358C86.3949 196.592 90.4923 196.206 93.2575 198.496C96.0227 200.785 96.4086 204.882 94.1194 207.648L56.8142 252.709ZM333.363 7.26629C332.945 13.7528 332.946 13.7529 332.946 13.7529C332.946 13.7529 332.946 13.7529 332.945 13.7528C332.942 13.7527 332.938 13.7524 332.932 13.752C332.92 13.7513 332.9 13.75 332.873 13.7483C332.817 13.745 332.732 13.7398 332.615 13.7331C332.383 13.7197 332.031 13.7002 331.563 13.6764C330.628 13.629 329.232 13.5648 327.419 13.4999C323.791 13.3701 318.495 13.2371 311.871 13.2281C298.615 13.2099 280.069 13.6875 258.945 15.67C216.524 19.6513 164.439 29.6399 123.809 53.2932L117.268 42.0584C160.338 16.9848 214.665 6.76864 257.731 2.7269C279.35 0.697876 298.318 0.20945 311.888 0.228063C318.677 0.237374 324.122 0.373574 327.884 0.508234C329.765 0.575571 331.225 0.642546 332.222 0.693129C332.72 0.718422 333.103 0.739619 333.365 0.75472C333.495 0.76227 333.596 0.768296 333.666 0.772548C333.7 0.774675 333.727 0.776357 333.747 0.777565C333.756 0.778169 333.764 0.778654 333.77 0.779017C333.772 0.779198 333.775 0.779377 333.777 0.779468C333.779 0.779616 333.781 0.779733 333.363 7.26629ZM123.809 53.2932C84.961 75.9089 68.1732 123.464 61.4371 167.249C58.1046 188.911 57.314 209.133 57.3615 223.957C57.3851 231.361 57.6177 237.397 57.843 241.566C57.9556 243.65 58.0663 245.266 58.148 246.352C58.1888 246.895 58.2224 247.306 58.2453 247.575C58.2568 247.71 58.2656 247.81 58.2713 247.874C58.2741 247.905 58.2762 247.928 58.2774 247.942C58.2781 247.949 58.2785 247.953 58.2787 247.955C58.2788 247.956 58.2788 247.956 58.2789 247.957C58.2788 247.956 58.2787 247.955 51.8073 248.564C45.3359 249.174 45.3357 249.171 45.3354 249.169C45.3353 249.167 45.3349 249.163 45.3346 249.16C45.334 249.153 45.3331 249.143 45.332 249.132C45.3299 249.108 45.3269 249.076 45.3232 249.034C45.3157 248.951 45.3052 248.831 45.292 248.676C45.2656 248.365 45.2287 247.913 45.1846 247.327C45.0965 246.156 44.9797 244.448 44.8619 242.267C44.6263 237.907 44.386 231.65 44.3615 223.999C44.3126 208.715 45.1248 187.786 48.5883 165.272C55.4444 120.707 73.0221 67.8168 117.268 42.0584L123.809 53.2932Z" fill="#B8B8B8"/>
</svg>
